<?xml version="1.0" encoding="UTF-8" standalone="no"?>
<!-- Generator: Adobe Illustrator 13.0.0, SVG Export Plug-In . SVG Version: 6.00 Build 14948)  -->

<svg
   xmlns:osb="http://www.openswatchbook.org/uri/2009/osb"
   xmlns:dc="http://purl.org/dc/elements/1.1/"
   xmlns:cc="http://creativecommons.org/ns#"
   xmlns:rdf="http://www.w3.org/1999/02/22-rdf-syntax-ns#"
   xmlns:svg="http://www.w3.org/2000/svg"
   xmlns="http://www.w3.org/2000/svg"
   xmlns:xlink="http://www.w3.org/1999/xlink"
   xmlns:sodipodi="http://sodipodi.sourceforge.net/DTD/sodipodi-0.dtd"
   xmlns:inkscape="http://www.inkscape.org/namespaces/inkscape"
   version="1.1"
   id="Layer_1"
   x="0px"
   y="0px"
   width="257.73001"
   height="80.620003"
   viewBox="0 0 257.73 80.620001"
   enable-background="new 0 0 595.28 819.723"
   xml:space="preserve"
   inkscape:version="0.48.5 r10040"
   sodipodi:docname="logo_white.svg"><metadata
   id="metadata4021"><rdf:RDF><cc:Work
       rdf:about=""><dc:format>image/svg+xml</dc:format><dc:type
         rdf:resource="http://purl.org/dc/dcmitype/StillImage" /><dc:title /></cc:Work></rdf:RDF></metadata><defs
   id="defs4019"><linearGradient
     inkscape:collect="always"
     id="linearGradient5219"><stop
       style="stop-color:#000000;stop-opacity:1;"
       offset="0"
       id="stop5221" /><stop
       style="stop-color:#000000;stop-opacity:0;"
       offset="1"
       id="stop5223" /></linearGradient><linearGradient
     id="linearGradient5213"
     osb:paint="solid"><stop
       style="stop-color:#000000;stop-opacity:1;"
       offset="0"
       id="stop5215" /></linearGradient><linearGradient
     inkscape:collect="always"
     xlink:href="#linearGradient5213"
     id="linearGradient5217"
     x1="37.995"
     y1="469.04611"
     x2="281.721"
     y2="469.04611"
     gradientUnits="userSpaceOnUse" /><linearGradient
     inkscape:collect="always"
     xlink:href="#linearGradient5219"
     id="linearGradient5225"
     x1="80.316307"
     y1="55.039757"
     x2="249.60415"
     y2="55.039757"
     gradientUnits="userSpaceOnUse" /></defs><sodipodi:namedview
   pagecolor="#ffffff"
   bordercolor="#666666"
   borderopacity="1"
   objecttolerance="10"
   gridtolerance="10"
   guidetolerance="10"
   inkscape:pageopacity="0"
   inkscape:pageshadow="2"
   inkscape:window-width="1920"
   inkscape:window-height="1018"
   id="namedview4017"
   showgrid="false"
   inkscape:zoom="4.0550283"
   inkscape:cx="83.198091"
   inkscape:cy="32.307369"
   inkscape:window-x="-8"
   inkscape:window-y="-8"
   inkscape:window-maximized="1"
   inkscape:current-layer="text4023"
   fit-margin-top="0"
   fit-margin-left="0"
   fit-margin-right="0"
   fit-margin-bottom="0" />



<g
   id="g3583"
   transform="translate(-32.076428,-428.66342)"
   style="fill:#ffffff;fill-opacity:1;stroke:none;stroke-opacity:1">
	<path
   d="m 103.952,453.955 c -0.302,-0.705 -0.626,-1.398 -0.971,-2.082 0.232,0.734 0.59,1.363 0.971,2.082 z m -25.123,49.652 c 2.768,-0.289 5.503,-0.879 8.178,-1.77 -2.71,0.752 -5.421,1.42 -8.178,1.77 z m 25.123,-49.652 c 0.384,0.896 0.73,1.811 1.035,2.738 -0.227,-0.738 -0.479,-1.475 -0.761,-2.207 -0.093,-0.186 -0.184,-0.361 -0.274,-0.531 z m -2.686,-5.12 c 0.616,0.984 1.189,1.998 1.715,3.037 -0.037,-0.113 -0.07,-0.229 -0.1,-0.348 -0.539,-1.075 -1.077,-1.882 -1.615,-2.689 z m 5.301,16.416 c -0.012,0 -0.023,0.003 -0.035,0.004 -0.03,-0.718 -0.077,-1.438 -0.153,-2.16 -0.231,-2.191 -0.708,-4.332 -1.392,-6.402 0.868,2.828 1.322,5.703 1.4,8.577 -1.44,0.094 -2.582,1.279 -2.582,2.743 0,1.354 0.976,2.476 2.262,2.711 -0.763,5.279 -2.824,10.456 -6.146,15.238 -2.96,4.305 -6.457,7.264 -10.763,9.416 -3.965,2.204 -8.115,3.133 -12.442,3.4 -0.163,-1.109 -0.732,-2.074 -1.558,-2.757 4.349,-0.183 8.665,-1.426 12.656,-3.603 7.264,-4.305 12.375,-10.76 14.259,-19.102 2.422,-9.955 -0.27,-19.371 -6.456,-27.174 -0.174,-0.21 -0.355,-0.411 -0.534,-0.615 2.423,-0.033 4.377,-2.001 4.377,-4.432 0,-2.449 -1.986,-4.436 -4.438,-4.436 -2.449,0 -4.436,1.986 -4.436,4.436 0,0.068 0.017,0.131 0.02,0.198 -10.512,-8.165 -25.532,-9.377 -37.232,-2.954 8.878,-4.572 19.641,-5.111 29.058,-1.344 3.004,1.236 5.769,2.887 8.233,4.879 0.336,1.891 1.864,3.349 3.781,3.601 3.138,3.524 5.499,7.753 6.818,12.505 1.83,7.057 1.375,14.111 -2.104,20.674 -0.053,0.092 -0.697,1.215 -1.667,2.705 0.123,-0.407 0.208,-0.829 0.208,-1.275 0,-1.092 -0.41,-2.078 -1.063,-2.851 1.943,-4.173 2.819,-8.776 2.474,-13.603 -0.537,-7.533 -4.305,-13.99 -9.955,-19.102 -4.831,-4.026 -10.717,-6.395 -16.869,-6.995 -0.698,-1.536 -2.238,-2.61 -4.035,-2.61 -1.9,0 -3.509,1.201 -4.141,2.881 -6.007,1.028 -11.63,3.712 -16.276,7.65 -0.332,-1.152 -1.383,-2.002 -2.644,-2.002 -1.525,0 -2.76,1.238 -2.76,2.762 0,1.237 0.817,2.271 1.938,2.623 -0.912,1.021 -1.773,2.094 -2.565,3.225 0.818,-1.12 1.701,-2.186 2.629,-3.204 0.242,0.069 0.493,0.118 0.757,0.118 1.526,0 2.763,-1.236 2.763,-2.762 0,-0.234 -0.038,-0.458 -0.093,-0.675 4.648,-3.948 10.215,-6.685 16.229,-7.667 -0.167,0.467 -0.274,0.963 -0.274,1.486 0,0.689 0.171,1.334 0.452,1.917 -0.042,0.005 -0.092,0.024 -0.131,0.024 -13.732,2.145 -23.35,14.219 -25.046,27.345 -0.674,0.777 -1.096,1.779 -1.096,2.89 0,0.971 0.321,1.86 0.85,2.591 0.012,0.275 0.035,0.55 0.054,0.824 -0.019,-0.266 -0.022,-0.532 -0.033,-0.799 0.784,1.066 2.026,1.767 3.441,1.807 0.014,0.106 0.022,0.211 0.038,0.317 1.038,5.818 3.375,10.986 6.858,15.396 -0.75,0.494 -1.248,1.341 -1.248,2.307 0,1.525 1.237,2.762 2.761,2.762 0.893,0 1.679,-0.431 2.184,-1.089 3.94,3.346 8.148,5.683 13.12,6.991 1.346,0.27 2.423,0.537 3.498,0.807 0.444,0.061 0.887,0.088 1.33,0.134 0.469,0.169 0.968,0.276 1.495,0.276 0.259,0 0.51,-0.033 0.757,-0.076 1.941,0.135 3.846,0.059 5.728,-0.178 -1.855,0.192 -3.726,0.242 -5.601,0.165 1.935,-0.391 3.395,-2.045 3.525,-4.062 4.096,-0.305 8.114,-1.377 11.869,-3.254 0.807,-0.539 1.615,-0.809 2.422,-1.346 8.56,-5.777 14.04,-14.623 15.253,-24.363 0.09,0.009 0.178,0.027 0.27,0.027 1.525,0 2.762,-1.236 2.762,-2.762 0,-1.526 -1.236,-2.758 -2.761,-2.758 z M 73.554,437.804 c 4.574,0.807 8.342,1.883 12.377,4.574 3.767,2.691 6.726,5.65 9.147,9.686 4.818,7.709 4.878,16.924 1.17,24.757 -0.713,-0.651 -1.636,-1.063 -2.659,-1.139 0.652,-1.402 1.154,-2.909 1.489,-4.517 1.614,-7.803 -0.27,-15.604 -5.381,-21.523 -4.489,-5.101 -10.678,-8.029 -17.279,-8.799 0.166,-0.466 0.273,-0.96 0.273,-1.482 0,-0.599 -0.122,-1.168 -0.337,-1.688 0.4,0.043 0.799,0.072 1.2,0.131 z m -1.378,3.592 c 8.032,0.91 15.357,5.29 19.674,12.551 3.955,6.921 4.039,14.975 0.272,21.871 -1.892,0.507 -3.292,2.217 -3.292,4.268 0,0.019 0.005,0.036 0.005,0.055 -2.558,2.455 -5.586,3.921 -9.093,4.746 -5.919,1.346 -12.914,-0.807 -15.066,-6.455 2.69,3.766 7.533,5.648 12.107,5.379 9.686,-0.537 16.412,-10.223 15.873,-19.369 -0.538,-6.996 -4.574,-12.916 -10.492,-16.951 -3.768,-2.42 -8.071,-3.498 -12.377,-3.766 -0.353,0 -0.701,0.015 -1.05,0.025 1.503,-0.166 2.77,-1.07 3.439,-2.354 z m -7.769,42.684 c 5.92,4.035 13.453,4.305 19.641,1.346 1.908,-1 3.626,-2.219 5.125,-3.638 0.37,0.888 1.027,1.616 1.847,2.102 -2.062,1.874 -4.418,3.379 -6.971,4.495 -8.879,3.768 -19.641,1.076 -25.021,-7.264 -3.497,-5.381 -3.497,-12.377 0,-17.488 -3.768,6.995 -1.077,15.874 5.379,20.447 z m 22.062,-29.057 c -4.035,-6.188 -11.568,-8.879 -18.564,-8.609 -9.686,0.539 -18.025,7.266 -20.984,16.412 -0.547,1.911 -0.954,3.824 -1.187,5.771 -0.632,-0.709 -1.476,-1.221 -2.444,-1.41 0.794,-3.953 2.428,-7.81 4.975,-11.355 4.037,-5.65 9.418,-9.148 16.143,-10.225 8.609,-1.615 17.757,1.613 22.061,9.416 z m -33.093,2.422 c -8.341,9.686 -5.649,25.02 4.306,32.822 0.807,0.539 1.344,0.809 1.882,1.346 3.285,2.189 6.791,3.527 10.353,4.105 -0.846,0.555 -1.474,1.396 -1.784,2.38 -2.37,-0.532 -4.705,-1.368 -6.955,-2.72 -2.421,-1.613 -4.305,-3.227 -6.457,-5.111 -8.609,-8.607 -9.954,-23.945 -1.345,-32.822 z m -10.844,9.666 c -0.033,-10e-4 -0.064,-0.01 -0.098,-0.01 -1.323,0 -2.497,0.59 -3.31,1.507 0.852,-6.333 3.567,-12.421 7.796,-17.353 4.303,-4.572 9.684,-8.07 16.141,-9.416 0.46,-0.099 0.921,-0.167 1.382,-0.242 0.734,1.248 2.05,2.099 3.583,2.178 -3.653,0.201 -7.133,1.052 -10.614,2.908 -3.229,1.883 -5.919,3.766 -8.341,6.457 -2.959,3.498 -5.111,7.533 -6.188,12.107 -0.134,0.628 -0.248,1.248 -0.351,1.864 z m 16.494,32.572 c -1.075,-0.807 -1.883,-1.344 -2.959,-1.881 -1.131,-0.707 -2.109,-1.493 -3.021,-2.349 0.271,-0.428 0.433,-0.931 0.433,-1.474 0,-1.525 -1.236,-2.762 -2.762,-2.762 -0.438,0 -0.846,0.111 -1.214,0.293 -0.413,-0.481 -0.826,-0.962 -1.239,-1.514 -3.016,-4.354 -4.806,-9.176 -5.353,-14.073 1.05,-0.114 1.993,-0.575 2.692,-1.292 0.507,5.469 2.743,10.544 6.231,14.729 10e-4,0.002 2.273,2.793 4.773,4.713 0.332,0.309 0.686,0.574 1.074,0.768 0.08,0.045 0.162,0.092 0.244,0.137 0.2,0.121 0.401,0.23 0.602,0.33 3.009,1.629 6.148,2.97 9.417,3.76 -0.01,0.12 -0.036,0.235 -0.036,0.357 0,1.832 1.112,3.405 2.698,4.081 -4.032,-0.596 -8.017,-1.684 -11.58,-3.823 z m -4.305,-16.68 c -3.229,-5.65 -4.305,-12.375 -1.345,-18.295 -2.69,6.727 0,13.723 4.035,19.102 2.69,2.959 5.649,5.111 9.417,6.457 3.229,1.076 6.726,1.615 10.225,1.346 5.698,-0.776 10.885,-3.071 14.867,-7.322 0.428,0.137 0.875,0.23 1.347,0.23 1.03,0 1.965,-0.365 2.718,-0.953 -1.077,1.494 -2.318,3.041 -3.546,4.186 -2.267,2.031 -4.856,3.668 -7.853,4.666 -0.539,0.27 -1.077,0.539 -1.615,0.807 -10.492,3.497 -22.332,-0.538 -28.25,-10.224 z"
   id="path3585"
   inkscape:connector-curvature="0"
   style="fill:#ffffff;fill-opacity:1;stroke:none;stroke-opacity:1" />
	<g
   id="g3587"
   style="fill:#ffffff;fill-opacity:1;stroke:none;stroke-opacity:1">
		<path
   d="m 122.595,472.545 h -0.447 c -3.148,0 -5.89,-1.185 -8.226,-3.554 -2.336,-2.369 -3.504,-5.127 -3.504,-8.275 0,-3.147 1.159,-5.873 3.479,-8.176 2.319,-2.303 5.185,-3.454 8.598,-3.454 3.413,0 6.345,1.358 8.797,4.075 l -15.606,15.407 c 2.153,1.724 4.225,2.585 6.213,2.585 1.988,0 3.769,-0.455 5.343,-1.367 1.573,-0.911 2.874,-2.129 3.901,-3.653 v 2.535 c -2.352,2.584 -5.202,3.877 -8.548,3.877 z m -0.522,-22.067 c -2.634,0 -4.97,1.019 -7.008,3.057 -2.038,2.037 -3.057,4.382 -3.057,7.032 0,2.651 0.877,4.971 2.634,6.958 l 14.463,-14.363 c -2.054,-1.789 -4.397,-2.684 -7.032,-2.684 z"
   id="path3589"
   inkscape:connector-curvature="0"
   style="fill:#ffffff;fill-opacity:1;stroke:none;stroke-opacity:1" />
		<path
   d="m 149.682,470.557 v 1.392 h -15.407 l 12.724,-20.974 h -11.382 v -1.392 h 14.215 l -12.773,20.974 h 12.623 z"
   id="path3591"
   inkscape:connector-curvature="0"
   style="fill:#ffffff;fill-opacity:1;stroke:none;stroke-opacity:1" />
		<path
   d="m 170.755,451.273 c 0.508,0.707 0.878,1.491 1.11,2.353 0.232,0.861 0.314,1.9 0.248,3.114 -0.044,0.486 -0.122,0.934 -0.232,1.343 -0.11,0.408 -0.243,0.79 -0.397,1.143 -0.044,0.089 -0.083,0.172 -0.116,0.249 -0.033,0.077 -0.072,0.16 -0.116,0.248 -0.088,0.155 -0.171,0.304 -0.249,0.447 -0.078,0.144 -0.171,0.281 -0.282,0.414 -0.442,0.619 -0.977,1.121 -1.607,1.508 -0.629,0.387 -1.342,0.712 -2.137,0.978 -0.243,0.089 -0.497,0.144 -0.762,0.166 -0.265,0.021 -0.53,0.065 -0.795,0.132 -0.132,0.022 -0.265,0.033 -0.397,0.033 -0.133,0 -0.265,0.012 -0.398,0.033 h -1.358 -2.783 c -0.288,0 -0.591,0 -0.911,0 -0.32,0 -0.569,0.066 -0.746,0.199 -0.221,0.154 -0.332,0.425 -0.332,0.812 0,0.387 0,0.768 0,1.144 v 4.373 c 0,0.266 0.005,0.553 0.017,0.861 0.011,0.31 -0.039,0.553 -0.149,0.729 -0.088,0.154 -0.287,0.276 -0.596,0.364 -0.155,0.044 -0.321,0.055 -0.497,0.033 -0.177,-0.021 -0.354,-0.033 -0.53,-0.033 h -1.922 c -0.243,0 -0.47,-0.005 -0.679,-0.017 -0.21,-0.011 -0.381,-0.071 -0.514,-0.183 -0.132,-0.109 -0.21,-0.281 -0.232,-0.513 -0.022,-0.232 -0.033,-0.47 -0.033,-0.713 v -19.814 c 0,-0.309 -0.005,-0.673 -0.017,-1.093 -0.012,-0.42 0.039,-0.718 0.149,-0.896 0.088,-0.132 0.253,-0.242 0.497,-0.331 0.044,-0.021 0.094,-0.027 0.149,-0.017 0.055,0.012 0.104,0.006 0.149,-0.017 h 9.576 c 0.199,0 0.397,-0.005 0.596,-0.017 0.199,-0.011 0.386,0.006 0.563,0.05 h 0.166 c 0.11,0.045 0.232,0.066 0.364,0.066 0.133,0 0.254,0.022 0.365,0.066 0.11,0.022 0.209,0.033 0.298,0.033 0.088,0 0.187,0.022 0.298,0.066 0.353,0.11 0.707,0.215 1.061,0.314 0.353,0.1 0.684,0.237 0.994,0.414 0.11,0.089 0.232,0.166 0.364,0.232 0.132,0.066 0.265,0.154 0.397,0.265 0.11,0.066 0.204,0.139 0.282,0.216 0.077,0.077 0.171,0.16 0.282,0.248 l 0.199,0.199 c 0.266,0.269 0.487,0.534 0.663,0.799 z m -3.644,5.434 c 0.044,-0.242 0.061,-0.546 0.05,-0.911 -0.012,-0.364 -0.05,-0.668 -0.116,-0.911 -0.132,-0.485 -0.298,-0.872 -0.497,-1.159 -0.199,-0.287 -0.497,-0.552 -0.895,-0.796 -0.332,-0.198 -0.74,-0.348 -1.226,-0.447 -0.486,-0.099 -1.011,-0.159 -1.574,-0.182 -0.563,-0.021 -1.143,-0.027 -1.74,-0.017 -0.596,0.012 -1.16,0.017 -1.69,0.017 -0.066,0.022 -0.127,0.039 -0.182,0.05 -0.055,0.011 -0.116,0.017 -0.182,0.017 -0.221,0.088 -0.364,0.221 -0.431,0.397 -0.088,0.177 -0.133,0.414 -0.133,0.712 0,0.299 0,0.569 0,0.812 v 3.147 c 0,0.265 0,0.558 0,0.878 0,0.32 0.055,0.569 0.166,0.745 0.088,0.133 0.22,0.232 0.397,0.299 0.177,0.066 0.375,0.104 0.596,0.116 0.221,0.011 0.458,0.011 0.712,0 0.254,-0.012 0.492,-0.017 0.712,-0.017 1.171,0 2.242,-0.056 3.214,-0.166 0.972,-0.11 1.711,-0.497 2.22,-1.16 0.133,-0.198 0.243,-0.414 0.332,-0.646 0.09,-0.232 0.178,-0.49 0.267,-0.778 z"
   id="path3593"
   inkscape:connector-curvature="0"
   style="fill:#ffffff;fill-opacity:1;stroke:none;stroke-opacity:1" />
		<path
   d="m 193.022,470.358 c 0.021,0.089 0.061,0.199 0.115,0.332 0.055,0.132 0.1,0.271 0.133,0.414 0.033,0.143 0.037,0.281 0.016,0.414 -0.021,0.133 -0.1,0.231 -0.232,0.298 -0.176,0.111 -0.469,0.154 -0.877,0.133 -0.408,-0.021 -0.746,-0.033 -1.012,-0.033 h -1.557 c -0.178,0 -0.336,0.006 -0.48,0.017 -0.145,0.012 -0.281,-0.005 -0.414,-0.05 -0.242,-0.066 -0.42,-0.198 -0.529,-0.397 -0.111,-0.177 -0.193,-0.364 -0.25,-0.563 -0.055,-0.198 -0.127,-0.397 -0.215,-0.597 -0.111,-0.353 -0.227,-0.706 -0.348,-1.06 -0.121,-0.354 -0.248,-0.696 -0.381,-1.027 -0.066,-0.199 -0.127,-0.381 -0.182,-0.547 -0.057,-0.166 -0.117,-0.314 -0.184,-0.447 -0.067,-0.133 -0.164,-0.248 -0.297,-0.348 -0.133,-0.1 -0.311,-0.171 -0.531,-0.216 -0.111,0 -0.215,-0.005 -0.314,-0.017 -0.1,-0.011 -0.205,-0.017 -0.314,-0.017 h -5.235 c -0.376,0 -0.779,-0.005 -1.209,-0.017 -0.431,-0.011 -0.768,0.072 -1.011,0.249 -0.177,0.133 -0.298,0.31 -0.364,0.53 -0.066,0.22 -0.144,0.441 -0.232,0.662 -0.177,0.376 -0.326,0.768 -0.447,1.177 -0.122,0.409 -0.26,0.812 -0.415,1.209 -0.088,0.222 -0.171,0.453 -0.248,0.696 -0.078,0.243 -0.205,0.431 -0.381,0.562 -0.111,0.089 -0.271,0.149 -0.48,0.183 -0.209,0.034 -0.442,0.05 -0.696,0.05 -0.254,0 -0.514,-0.005 -0.779,-0.017 -0.265,-0.011 -0.497,-0.017 -0.696,-0.017 -0.287,0 -0.635,0.006 -1.043,0.017 -0.409,0.012 -0.702,-0.038 -0.878,-0.149 -0.111,-0.066 -0.171,-0.165 -0.183,-0.298 -0.012,-0.133 0,-0.271 0.033,-0.414 0.033,-0.143 0.072,-0.282 0.116,-0.414 0.044,-0.133 0.088,-0.243 0.132,-0.332 0.221,-0.508 0.425,-1.026 0.613,-1.557 0.187,-0.53 0.381,-1.049 0.58,-1.558 0.088,-0.177 0.154,-0.353 0.199,-0.53 0.044,-0.177 0.11,-0.353 0.199,-0.53 0.177,-0.464 0.354,-0.938 0.53,-1.425 0.177,-0.485 0.353,-0.961 0.53,-1.425 0.176,-0.441 0.342,-0.878 0.497,-1.309 0.154,-0.431 0.32,-0.866 0.497,-1.309 0.508,-1.215 0.977,-2.44 1.408,-3.678 0.431,-1.237 0.899,-2.463 1.408,-3.678 0.044,-0.11 0.077,-0.21 0.099,-0.299 0.022,-0.088 0.055,-0.188 0.1,-0.298 0.176,-0.464 0.353,-0.938 0.53,-1.425 0.176,-0.485 0.364,-0.961 0.563,-1.425 0.11,-0.243 0.204,-0.491 0.282,-0.745 0.077,-0.254 0.215,-0.459 0.414,-0.613 0.11,-0.066 0.254,-0.121 0.431,-0.166 0.044,-0.021 0.088,-0.027 0.133,-0.017 0.044,0.012 0.088,0.006 0.132,-0.017 h 2.916 c 0.242,0 0.492,-0.005 0.746,-0.017 0.254,-0.011 0.457,0.039 0.613,0.149 0.242,0.133 0.402,0.326 0.48,0.58 0.076,0.254 0.17,0.514 0.281,0.778 0.154,0.376 0.297,0.746 0.43,1.11 0.133,0.364 0.277,0.734 0.432,1.109 0.043,0.133 0.088,0.266 0.133,0.398 0.043,0.132 0.088,0.265 0.133,0.397 0.176,0.441 0.342,0.878 0.496,1.309 0.154,0.431 0.32,0.867 0.496,1.309 0.443,1.104 0.857,2.22 1.244,3.347 0.385,1.127 0.811,2.242 1.275,3.347 0.043,0.089 0.07,0.171 0.082,0.248 0.012,0.078 0.039,0.161 0.084,0.249 0.131,0.354 0.264,0.707 0.396,1.061 0.132,0.354 0.266,0.707 0.398,1.06 0.088,0.178 0.154,0.349 0.199,0.514 0.043,0.166 0.098,0.337 0.164,0.514 0.287,0.707 0.553,1.414 0.797,2.121 0.242,0.707 0.508,1.402 0.795,2.087 0.043,0.066 0.066,0.128 0.066,0.183 0,0.055 0.024,0.119 0.068,0.185 z m -8.582,-7.587 c 0.287,-0.11 0.418,-0.299 0.396,-0.563 -0.021,-0.266 -0.088,-0.519 -0.199,-0.763 -0.043,-0.088 -0.064,-0.171 -0.064,-0.248 0,-0.077 -0.023,-0.16 -0.066,-0.249 -0.289,-0.75 -0.553,-1.513 -0.797,-2.286 -0.242,-0.772 -0.518,-1.546 -0.828,-2.319 -0.043,-0.11 -0.088,-0.248 -0.133,-0.414 -0.043,-0.166 -0.099,-0.32 -0.164,-0.464 -0.066,-0.144 -0.145,-0.271 -0.232,-0.381 -0.089,-0.11 -0.199,-0.166 -0.332,-0.166 -0.044,0.045 -0.088,0.078 -0.133,0.1 -0.044,0.022 -0.088,0.056 -0.132,0.1 -0.177,0.221 -0.304,0.486 -0.381,0.795 -0.078,0.31 -0.171,0.608 -0.282,0.895 -0.265,0.619 -0.503,1.248 -0.712,1.889 -0.21,0.642 -0.437,1.281 -0.679,1.922 -0.089,0.221 -0.166,0.437 -0.232,0.646 -0.066,0.21 -0.133,0.437 -0.199,0.679 -0.066,0.178 -0.056,0.376 0.033,0.597 0.11,0.155 0.293,0.243 0.547,0.265 0.254,0.022 0.514,0.033 0.779,0.033 h 2.518 c 0.199,0 0.42,0 0.662,0 0.244,-0.003 0.453,-0.024 0.63,-0.068 z"
   id="path3595"
   inkscape:connector-curvature="0"
   style="fill:#ffffff;fill-opacity:1;stroke:none;stroke-opacity:1" />
		<path
   d="m 215.72,470.358 c 0.021,0.089 0.061,0.199 0.115,0.332 0.055,0.132 0.1,0.271 0.133,0.414 0.033,0.143 0.038,0.281 0.017,0.414 -0.022,0.133 -0.1,0.231 -0.232,0.298 -0.177,0.111 -0.469,0.154 -0.878,0.133 -0.408,-0.021 -0.745,-0.033 -1.011,-0.033 h -1.557 c -0.178,0 -0.337,0.006 -0.48,0.017 -0.145,0.012 -0.282,-0.005 -0.414,-0.05 -0.243,-0.066 -0.42,-0.198 -0.53,-0.397 -0.111,-0.177 -0.193,-0.364 -0.249,-0.563 -0.055,-0.198 -0.127,-0.397 -0.215,-0.597 -0.111,-0.353 -0.227,-0.706 -0.348,-1.06 -0.122,-0.354 -0.249,-0.696 -0.382,-1.027 -0.065,-0.199 -0.127,-0.381 -0.182,-0.547 -0.056,-0.166 -0.116,-0.314 -0.183,-0.447 -0.067,-0.133 -0.165,-0.248 -0.298,-0.348 -0.133,-0.1 -0.31,-0.171 -0.53,-0.216 -0.111,0 -0.216,-0.005 -0.314,-0.017 -0.1,-0.011 -0.205,-0.017 -0.315,-0.017 h -5.235 c -0.375,0 -0.778,-0.005 -1.209,-0.017 -0.431,-0.011 -0.768,0.072 -1.011,0.249 -0.177,0.133 -0.298,0.31 -0.364,0.53 -0.066,0.22 -0.144,0.441 -0.232,0.662 -0.177,0.376 -0.326,0.768 -0.447,1.177 -0.121,0.409 -0.26,0.812 -0.414,1.209 -0.088,0.222 -0.171,0.453 -0.248,0.696 -0.078,0.243 -0.205,0.431 -0.381,0.562 -0.111,0.089 -0.271,0.149 -0.48,0.183 -0.211,0.033 -0.442,0.05 -0.696,0.05 -0.254,0 -0.514,-0.005 -0.778,-0.017 -0.266,-0.011 -0.497,-0.017 -0.696,-0.017 -0.287,0 -0.635,0.006 -1.044,0.017 -0.408,0.012 -0.701,-0.038 -0.878,-0.149 -0.11,-0.066 -0.171,-0.165 -0.182,-0.298 -0.012,-0.133 0,-0.271 0.033,-0.414 0.033,-0.143 0.071,-0.282 0.115,-0.414 0.044,-0.133 0.088,-0.243 0.133,-0.332 0.221,-0.508 0.425,-1.026 0.613,-1.557 0.188,-0.53 0.381,-1.049 0.58,-1.558 0.088,-0.177 0.154,-0.353 0.198,-0.53 0.044,-0.177 0.11,-0.353 0.199,-0.53 0.176,-0.464 0.353,-0.938 0.53,-1.425 0.176,-0.485 0.353,-0.961 0.529,-1.425 0.177,-0.441 0.343,-0.878 0.497,-1.309 0.154,-0.431 0.32,-0.866 0.497,-1.309 0.508,-1.215 0.978,-2.44 1.408,-3.678 0.43,-1.238 0.9,-2.463 1.408,-3.678 0.044,-0.11 0.077,-0.21 0.1,-0.299 0.021,-0.088 0.055,-0.188 0.1,-0.298 0.177,-0.464 0.353,-0.938 0.53,-1.425 0.177,-0.485 0.364,-0.961 0.563,-1.425 0.11,-0.243 0.203,-0.491 0.281,-0.745 0.077,-0.254 0.216,-0.459 0.414,-0.613 0.11,-0.066 0.254,-0.121 0.431,-0.166 0.044,-0.021 0.088,-0.027 0.133,-0.017 0.044,0.012 0.088,0.006 0.133,-0.017 h 2.915 c 0.243,0 0.492,-0.005 0.746,-0.017 0.254,-0.011 0.458,0.039 0.613,0.149 0.242,0.133 0.402,0.326 0.48,0.58 0.076,0.254 0.17,0.514 0.281,0.778 0.154,0.376 0.298,0.746 0.431,1.11 0.133,0.364 0.276,0.734 0.431,1.109 0.044,0.133 0.088,0.266 0.133,0.398 0.044,0.132 0.088,0.265 0.133,0.397 0.176,0.441 0.342,0.878 0.496,1.309 0.154,0.431 0.32,0.867 0.497,1.309 0.442,1.104 0.856,2.22 1.243,3.347 0.386,1.127 0.812,2.242 1.275,3.347 0.044,0.089 0.071,0.171 0.083,0.248 0.011,0.078 0.038,0.161 0.083,0.249 0.132,0.354 0.265,0.707 0.397,1.061 0.132,0.354 0.265,0.707 0.397,1.06 0.088,0.178 0.154,0.349 0.199,0.514 0.044,0.166 0.099,0.337 0.165,0.514 0.287,0.707 0.552,1.414 0.796,2.121 0.242,0.707 0.508,1.402 0.795,2.087 0.044,0.066 0.066,0.128 0.066,0.183 0,0.055 0.023,0.119 0.068,0.185 z m -8.582,-7.587 c 0.287,-0.11 0.419,-0.299 0.397,-0.563 -0.022,-0.266 -0.089,-0.519 -0.199,-0.763 -0.044,-0.088 -0.065,-0.171 -0.065,-0.248 0,-0.077 -0.022,-0.16 -0.066,-0.249 -0.288,-0.75 -0.553,-1.513 -0.796,-2.286 -0.243,-0.772 -0.519,-1.546 -0.828,-2.319 -0.044,-0.11 -0.089,-0.248 -0.133,-0.414 -0.044,-0.166 -0.099,-0.32 -0.165,-0.464 -0.066,-0.144 -0.145,-0.271 -0.232,-0.381 -0.087,-0.11 -0.198,-0.166 -0.331,-0.166 -0.045,0.045 -0.089,0.078 -0.133,0.1 -0.044,0.022 -0.088,0.056 -0.132,0.1 -0.178,0.221 -0.305,0.486 -0.382,0.795 -0.077,0.31 -0.171,0.608 -0.281,0.895 -0.266,0.619 -0.503,1.248 -0.713,1.889 -0.21,0.642 -0.436,1.281 -0.679,1.922 -0.089,0.221 -0.166,0.437 -0.232,0.646 -0.065,0.21 -0.132,0.437 -0.198,0.679 -0.066,0.178 -0.056,0.376 0.033,0.597 0.11,0.155 0.292,0.243 0.547,0.265 0.253,0.022 0.513,0.033 0.778,0.033 h 2.519 c 0.198,0 0.419,0 0.662,0 0.243,0 0.451,-0.024 0.629,-0.068 z"
   id="path3597"
   inkscape:connector-curvature="0"
   style="fill:#ffffff;fill-opacity:1;stroke:none;stroke-opacity:1" />
		<path
   d="m 238.317,471.187 c 0.044,0.132 0.038,0.254 -0.017,0.364 -0.056,0.11 -0.116,0.188 -0.183,0.231 -0.133,0.111 -0.314,0.161 -0.547,0.149 -0.231,-0.011 -0.469,-0.017 -0.712,-0.017 h -1.822 c -0.354,0 -0.663,-0.017 -0.928,-0.05 -0.266,-0.033 -0.464,-0.16 -0.597,-0.381 -0.177,-0.287 -0.276,-0.641 -0.298,-1.061 -0.022,-0.419 -0.078,-0.816 -0.166,-1.192 0,-0.088 -0.006,-0.171 -0.017,-0.249 -0.012,-0.077 -0.017,-0.148 -0.017,-0.215 -0.066,-0.266 -0.1,-0.547 -0.1,-0.845 0,-0.299 -0.022,-0.569 -0.066,-0.812 -0.021,-0.066 -0.033,-0.165 -0.033,-0.298 -0.044,-0.243 -0.082,-0.491 -0.115,-0.745 -0.033,-0.254 -0.083,-0.503 -0.149,-0.746 -0.177,-0.508 -0.387,-0.961 -0.63,-1.358 -0.243,-0.397 -0.585,-0.696 -1.026,-0.895 -0.111,-0.044 -0.222,-0.077 -0.332,-0.1 -0.11,-0.021 -0.231,-0.055 -0.364,-0.1 -0.397,-0.132 -0.856,-0.198 -1.375,-0.198 -0.52,0 -1.033,0 -1.541,0 h -2.717 c -0.177,0.044 -0.331,0.077 -0.464,0.1 -0.133,0.021 -0.243,0.088 -0.331,0.198 -0.178,0.221 -0.255,0.563 -0.232,1.027 0.021,0.464 0.033,0.884 0.033,1.259 v 4.241 c 0,0.178 -0.006,0.359 -0.017,0.547 -0.011,0.188 -0.017,0.37 -0.017,0.547 0,0.177 0,0.337 0,0.48 0,0.143 -0.022,0.271 -0.066,0.381 -0.066,0.199 -0.198,0.331 -0.397,0.397 -0.11,0.045 -0.243,0.066 -0.397,0.066 -0.154,0 -0.32,0 -0.497,0 h -1.491 c -0.354,0 -0.729,0.006 -1.126,0.017 -0.397,0.012 -0.696,-0.061 -0.895,-0.216 -0.178,-0.109 -0.266,-0.314 -0.266,-0.612 0,-0.299 0,-0.591 0,-0.878 v -20.146 c 0,-0.243 -0.006,-0.497 -0.017,-0.763 -0.011,-0.265 0.038,-0.475 0.149,-0.63 0.088,-0.132 0.254,-0.242 0.497,-0.331 0.044,-0.021 0.094,-0.027 0.148,-0.017 0.056,0.012 0.105,0.006 0.149,-0.017 h 11.266 c 0.354,0 0.69,0.006 1.011,0.017 0.32,0.012 0.624,0.05 0.911,0.116 0.11,0.045 0.227,0.066 0.348,0.066 0.121,0 0.237,0.022 0.349,0.066 0.154,0.044 0.309,0.088 0.464,0.132 0.154,0.045 0.309,0.1 0.464,0.166 0.552,0.243 1.06,0.542 1.523,0.895 0.464,0.354 0.851,0.763 1.16,1.227 0.088,0.11 0.16,0.227 0.215,0.348 0.056,0.121 0.127,0.237 0.216,0.348 0.177,0.31 0.31,0.63 0.397,0.961 0.087,0.331 0.188,0.696 0.299,1.094 0.021,0.088 0.027,0.177 0.016,0.265 -0.011,0.089 0.006,0.177 0.05,0.266 v 0.298 c 0.044,0.177 0.056,0.393 0.033,0.646 -0.021,0.254 -0.055,0.458 -0.099,0.612 -0.045,0.178 -0.066,0.337 -0.066,0.48 0,0.145 -0.022,0.293 -0.066,0.447 -0.111,0.332 -0.222,0.646 -0.331,0.944 -0.111,0.299 -0.255,0.58 -0.432,0.845 -0.044,0.066 -0.099,0.139 -0.165,0.216 -0.066,0.078 -0.122,0.149 -0.166,0.216 -0.066,0.088 -0.138,0.177 -0.215,0.265 -0.078,0.089 -0.161,0.166 -0.249,0.232 -0.133,0.11 -0.265,0.221 -0.397,0.331 -0.132,0.11 -0.276,0.221 -0.431,0.331 -0.089,0.066 -0.177,0.139 -0.266,0.216 -0.088,0.077 -0.154,0.171 -0.198,0.281 -0.045,0.133 -0.022,0.243 0.066,0.331 0.088,0.089 0.165,0.155 0.231,0.199 0.221,0.177 0.441,0.354 0.663,0.53 0.221,0.177 0.408,0.387 0.563,0.629 0.265,0.376 0.475,0.763 0.629,1.16 0.154,0.397 0.299,0.851 0.431,1.358 0.044,0.199 0.072,0.409 0.083,0.63 0.011,0.221 0.038,0.431 0.083,0.629 0,0.133 0.005,0.261 0.017,0.382 0.011,0.121 0.017,0.248 0.017,0.381 0.021,0.088 0.027,0.182 0.017,0.281 -0.012,0.1 -0.006,0.205 0.017,0.315 0.021,0.088 0.027,0.177 0.017,0.265 -0.012,0.089 -0.006,0.188 0.017,0.298 0.044,0.222 0.066,0.453 0.066,0.696 0,0.243 0.021,0.476 0.066,0.695 l 0.099,0.597 c 0.044,0.199 0.088,0.397 0.133,0.597 0.045,0.203 0.088,0.391 0.133,0.568 z m -5.467,-14.944 c 0.044,-0.242 0.05,-0.541 0.017,-0.895 -0.033,-0.353 -0.071,-0.618 -0.115,-0.795 -0.045,-0.088 -0.066,-0.166 -0.066,-0.231 0,-0.066 -0.022,-0.133 -0.066,-0.199 -0.266,-0.685 -0.751,-1.182 -1.458,-1.491 -0.376,-0.177 -0.807,-0.275 -1.292,-0.298 -0.486,-0.022 -0.994,-0.033 -1.524,-0.033 H 224.5 c -0.044,0.044 -0.088,0.061 -0.133,0.05 -0.044,-0.011 -0.088,-0.017 -0.132,-0.017 -0.266,0.066 -0.442,0.177 -0.53,0.331 -0.111,0.177 -0.16,0.403 -0.149,0.68 0.011,0.277 0.017,0.546 0.017,0.812 v 3.081 c 0,0.266 0,0.53 0,0.796 0,0.265 0.055,0.475 0.166,0.629 0.088,0.133 0.231,0.222 0.431,0.266 0.198,0.044 0.419,0.077 0.662,0.099 0.243,0.022 0.497,0.028 0.763,0.017 0.265,-0.011 0.497,-0.017 0.695,-0.017 h 1.955 c 0.154,0 0.32,0.006 0.497,0.017 0.177,0.012 0.331,-0.005 0.464,-0.049 h 0.431 c 0.177,-0.044 0.348,-0.066 0.514,-0.066 0.166,0 0.326,-0.022 0.48,-0.066 0.375,-0.11 0.707,-0.254 0.994,-0.431 0.287,-0.177 0.53,-0.409 0.729,-0.696 0.133,-0.198 0.232,-0.419 0.299,-0.662 0.067,-0.243 0.131,-0.523 0.197,-0.832 z"
   id="path3599"
   inkscape:connector-curvature="0"
   style="fill:#ffffff;fill-opacity:1;stroke:none;stroke-opacity:1" />
		<path
   d="m 250.113,447.827 c 4.285,-0.066 7.233,1.204 8.847,3.811 0.221,0.354 0.392,0.719 0.514,1.094 0.121,0.376 0.236,0.784 0.348,1.226 0.044,0.178 0.061,0.381 0.05,0.613 -0.012,0.231 -0.062,0.403 -0.149,0.514 -0.11,0.133 -0.265,0.215 -0.464,0.248 -0.198,0.033 -0.42,0.05 -0.662,0.05 h -2.088 c -0.199,0 -0.397,0 -0.597,0 -0.198,0 -0.364,-0.021 -0.497,-0.066 -0.265,-0.11 -0.431,-0.286 -0.497,-0.529 -0.066,-0.243 -0.154,-0.486 -0.265,-0.729 -0.089,-0.221 -0.21,-0.452 -0.364,-0.695 -0.155,-0.243 -0.32,-0.432 -0.497,-0.563 -0.31,-0.221 -0.608,-0.409 -0.895,-0.563 -0.266,-0.11 -0.592,-0.204 -0.978,-0.281 -0.387,-0.077 -0.784,-0.127 -1.193,-0.149 -0.409,-0.021 -0.812,-0.011 -1.209,0.033 -0.397,0.044 -0.751,0.133 -1.061,0.265 -0.509,0.222 -0.9,0.48 -1.176,0.779 -0.277,0.298 -0.47,0.745 -0.58,1.342 -0.045,0.154 -0.056,0.326 -0.033,0.514 0.021,0.188 0.055,0.337 0.1,0.447 0.176,0.464 0.425,0.79 0.745,0.978 0.32,0.188 0.701,0.37 1.144,0.546 0.242,0.111 0.491,0.194 0.745,0.249 0.254,0.056 0.514,0.127 0.778,0.215 0.597,0.199 1.21,0.371 1.84,0.514 0.629,0.145 1.253,0.305 1.872,0.48 0.109,0.045 0.22,0.066 0.331,0.066 0.11,0 0.221,0.022 0.331,0.066 0.441,0.155 0.9,0.298 1.375,0.431 0.475,0.133 0.9,0.32 1.275,0.563 0.597,0.376 1.11,0.751 1.541,1.127 0.431,0.375 0.834,0.861 1.21,1.457 0.11,0.178 0.204,0.376 0.281,0.597 0.077,0.222 0.16,0.442 0.248,0.663 0.022,0.066 0.033,0.127 0.033,0.182 0,0.056 0.012,0.105 0.033,0.149 0.088,0.354 0.133,0.795 0.133,1.325 0.044,0.111 0.044,0.222 0,0.332 v 0.596 c -0.045,0.243 -0.083,0.476 -0.116,0.696 -0.033,0.22 -0.083,0.442 -0.148,0.662 -0.133,0.398 -0.276,0.763 -0.431,1.094 -0.155,0.331 -0.343,0.651 -0.563,0.961 -0.089,0.11 -0.178,0.204 -0.266,0.281 -0.088,0.078 -0.165,0.172 -0.231,0.282 -0.111,0.133 -0.232,0.26 -0.364,0.381 -0.133,0.122 -0.277,0.237 -0.431,0.348 -0.111,0.089 -0.228,0.178 -0.349,0.266 -0.121,0.088 -0.248,0.177 -0.381,0.265 -0.376,0.243 -0.768,0.442 -1.176,0.597 -0.409,0.154 -0.835,0.31 -1.276,0.464 -0.31,0.11 -0.629,0.182 -0.961,0.215 -0.331,0.033 -0.662,0.083 -0.994,0.149 -0.154,0.044 -0.304,0.061 -0.447,0.05 -0.144,-0.012 -0.281,0.005 -0.414,0.05 h -0.265 c -0.045,0 -0.105,-0.006 -0.183,-0.017 -0.077,-0.012 -0.138,-0.006 -0.182,0.017 -0.111,0.021 -0.299,0.033 -0.563,0.033 -0.266,0 -0.453,-0.012 -0.563,-0.033 h -0.331 c -0.155,-0.045 -0.315,-0.062 -0.48,-0.05 -0.166,0.011 -0.315,-0.006 -0.447,-0.05 -0.111,0 -0.211,-0.006 -0.299,-0.017 -0.088,-0.012 -0.188,-0.028 -0.298,-0.05 -0.265,-0.066 -0.542,-0.121 -0.828,-0.165 -0.288,-0.045 -0.553,-0.111 -0.796,-0.199 -1.082,-0.354 -2.032,-0.801 -2.85,-1.342 -0.818,-0.541 -1.502,-1.254 -2.054,-2.138 -0.354,-0.529 -0.63,-1.159 -0.828,-1.889 -0.045,-0.132 -0.072,-0.265 -0.083,-0.397 -0.012,-0.132 -0.039,-0.275 -0.083,-0.431 -0.045,-0.177 -0.078,-0.392 -0.1,-0.646 -0.022,-0.254 0.021,-0.447 0.133,-0.58 0.11,-0.177 0.271,-0.282 0.48,-0.315 0.21,-0.032 0.447,-0.049 0.712,-0.049 h 2.088 c 0.177,0 0.364,0 0.563,0 0.198,0 0.375,0.032 0.53,0.099 0.242,0.111 0.386,0.293 0.431,0.547 0.044,0.254 0.121,0.514 0.231,0.779 0.088,0.265 0.199,0.508 0.331,0.729 0.133,0.221 0.276,0.431 0.432,0.63 0.109,0.132 0.231,0.254 0.364,0.364 0.132,0.11 0.265,0.21 0.397,0.298 0.485,0.31 1.082,0.563 1.789,0.763 0.154,0.044 0.304,0.065 0.447,0.065 0.143,0 0.304,0.022 0.48,0.066 h 0.166 c 0.177,0.045 0.419,0.066 0.729,0.066 0.31,0 0.552,-0.021 0.729,-0.066 0.066,-0.021 0.176,-0.033 0.331,-0.033 0.11,-0.021 0.227,-0.038 0.348,-0.049 0.121,-0.012 0.237,-0.039 0.349,-0.083 0.75,-0.199 1.347,-0.464 1.789,-0.796 0.441,-0.331 0.75,-0.883 0.928,-1.656 0.044,-0.154 0.05,-0.331 0.017,-0.53 -0.033,-0.199 -0.072,-0.354 -0.116,-0.464 -0.221,-0.597 -0.597,-1.061 -1.127,-1.392 -0.066,-0.044 -0.188,-0.11 -0.364,-0.199 -0.331,-0.198 -0.701,-0.358 -1.11,-0.48 -0.408,-0.121 -0.812,-0.248 -1.209,-0.381 -0.154,-0.044 -0.304,-0.083 -0.447,-0.116 -0.144,-0.032 -0.304,-0.071 -0.48,-0.115 -0.354,-0.11 -0.712,-0.204 -1.077,-0.282 -0.364,-0.077 -0.712,-0.171 -1.043,-0.281 -0.111,-0.044 -0.199,-0.066 -0.266,-0.066 -0.067,0 -0.144,-0.021 -0.231,-0.066 -0.178,-0.044 -0.338,-0.088 -0.48,-0.133 -0.145,-0.044 -0.305,-0.088 -0.48,-0.132 -0.509,-0.177 -0.994,-0.359 -1.458,-0.547 -0.464,-0.188 -0.895,-0.403 -1.293,-0.646 -0.508,-0.331 -0.972,-0.717 -1.392,-1.159 -0.42,-0.441 -0.751,-0.95 -0.993,-1.524 -0.089,-0.199 -0.155,-0.402 -0.199,-0.613 -0.045,-0.209 -0.1,-0.436 -0.166,-0.679 -0.044,-0.199 -0.077,-0.486 -0.099,-0.861 -0.022,-0.376 -0.012,-0.685 0.032,-0.928 0.022,-0.089 0.033,-0.221 0.033,-0.398 0.066,-0.242 0.121,-0.475 0.166,-0.695 0.044,-0.221 0.11,-0.441 0.199,-0.663 0.331,-0.772 0.756,-1.43 1.275,-1.971 0.519,-0.541 1.121,-1.033 1.806,-1.475 0.441,-0.266 0.916,-0.475 1.425,-0.63 0.508,-0.154 1.049,-0.298 1.624,-0.431 0.22,-0.044 0.436,-0.071 0.646,-0.083 0.21,-0.011 0.425,-0.038 0.646,-0.083 0.066,-0.021 0.171,-0.021 0.314,0 0.144,0.015 0.237,0.005 0.282,-0.04 z"
   id="path3601"
   inkscape:connector-curvature="0"
   style="fill:#ffffff;fill-opacity:1;stroke:none;stroke-opacity:1" />
		<path
   d="M 264.725,448.324 H 277.118 280 c 0.265,0 0.519,0.012 0.762,0.033 0.243,0.022 0.42,0.111 0.53,0.266 0.044,0.065 0.071,0.144 0.083,0.231 0.011,0.089 0.038,0.177 0.083,0.266 v 0.364 c 0.021,0.154 0.027,0.32 0.017,0.497 -0.012,0.177 -0.017,0.343 -0.017,0.497 0,0.177 0.005,0.348 0.017,0.514 0.011,0.165 0.005,0.326 -0.017,0.48 -0.022,0.11 -0.033,0.276 -0.033,0.497 -0.066,0.265 -0.178,0.441 -0.332,0.529 -0.132,0.089 -0.298,0.133 -0.497,0.133 -0.198,0 -0.408,0 -0.629,0 h -2.286 -5.998 c -0.177,0 -0.381,-0.005 -0.612,-0.017 -0.232,-0.011 -0.464,-0.011 -0.696,0 -0.231,0.012 -0.447,0.033 -0.646,0.066 -0.199,0.033 -0.343,0.083 -0.431,0.149 -0.155,0.11 -0.249,0.271 -0.282,0.48 -0.033,0.209 -0.05,0.447 -0.05,0.712 v 1.889 0.961 c 0.044,0.177 0.088,0.326 0.133,0.447 0.044,0.122 0.121,0.216 0.231,0.282 0.133,0.088 0.287,0.138 0.464,0.148 0.177,0.012 0.365,0.017 0.563,0.017 h 1.789 5.699 c 0.154,0 0.349,-0.005 0.58,-0.017 0.232,-0.011 0.458,-0.011 0.68,0 0.22,0.012 0.425,0.028 0.612,0.05 0.188,0.022 0.326,0.066 0.414,0.133 0.11,0.066 0.188,0.198 0.232,0.397 0.044,0.199 0.071,0.414 0.083,0.646 0.011,0.231 0.011,0.469 0,0.712 -0.012,0.243 -0.017,0.453 -0.017,0.63 0,0.154 0,0.31 0,0.464 0,0.154 -0.022,0.287 -0.066,0.397 -0.045,0.177 -0.133,0.32 -0.265,0.431 -0.111,0.066 -0.261,0.11 -0.448,0.133 -0.187,0.023 -0.397,0.033 -0.629,0.033 -0.232,0 -0.464,-0.006 -0.696,-0.017 -0.231,-0.011 -0.425,-0.017 -0.579,-0.017 h -6.462 c -0.265,0 -0.519,-0.006 -0.762,-0.017 -0.243,-0.011 -0.47,0 -0.68,0.033 -0.21,0.033 -0.387,0.099 -0.53,0.198 -0.143,0.099 -0.248,0.249 -0.314,0.447 -0.022,0.111 -0.033,0.228 -0.033,0.349 0,0.121 0,0.237 0,0.348 v 1.259 1.855 c 0,0.266 0.017,0.503 0.05,0.713 0.033,0.21 0.127,0.37 0.282,0.48 0.065,0.066 0.148,0.104 0.248,0.115 0.1,0.012 0.204,0.039 0.314,0.083 h 0.332 c 0.11,0.022 0.231,0.028 0.364,0.017 0.133,-0.011 0.254,-0.017 0.364,-0.017 h 1.392 6.229 1.756 c 0.177,0 0.348,0 0.514,0 0.166,0 0.314,0.033 0.447,0.1 0.177,0.066 0.298,0.188 0.364,0.364 0.044,0.111 0.071,0.243 0.083,0.397 0.011,0.155 0.017,0.321 0.017,0.497 v 1.524 c 0,0.266 -0.012,0.514 -0.033,0.746 -0.022,0.231 -0.121,0.403 -0.298,0.513 -0.133,0.111 -0.304,0.166 -0.514,0.166 -0.21,0 -0.437,0 -0.68,0 h -2.484 -9.809 -2.617 c -0.31,0 -0.58,-0.017 -0.812,-0.05 -0.232,-0.033 -0.403,-0.138 -0.514,-0.314 -0.089,-0.133 -0.133,-0.304 -0.133,-0.514 0,-0.21 0,-0.414 0,-0.613 v -2.386 -9.013 -7.223 -2.055 c 0,-0.198 0,-0.397 0,-0.596 0,-0.199 0.044,-0.354 0.133,-0.465 0.088,-0.153 0.254,-0.265 0.497,-0.331 0.044,-0.021 0.088,-0.027 0.133,-0.017 0.047,0.019 0.091,0.013 0.135,-0.009 z"
   id="path3603"
   inkscape:connector-curvature="0"
   style="fill:#ffffff;fill-opacity:1;stroke:none;stroke-opacity:1" />
	</g>
	<g
   id="g3605"
   style="fill:#ffffff;fill-opacity:1;stroke:none;stroke-opacity:1">
		
		
		
		
		
		
		
		
		
		
		
		
		
		
		
	</g>
</g>










<g
   style="font-size:22px;font-style:normal;font-weight:normal;line-height:125%;letter-spacing:7.48000002px;word-spacing:0px;fill:#ffffff;fill-opacity:1;stroke:none;font-family:Sans"
   id="text4023"><path
     d="m 89.022667,63.674797 -8.20636,-16.873962 0.792236,0 7.47992,15.290161 7.436279,-15.290161 0.703613,0 z"
     style="font-variant:normal;font-stretch:normal;line-height:125%;fill:#ffffff;font-family:Poiret One;-inkscape-font-specification:Poiret One"
     id="path3003" /><path
     d="m 106.88969,46.800835 0.72644,0 0,16.5 -0.72644,0 z"
     style="font-variant:normal;font-stretch:normal;line-height:125%;fill:#ffffff;font-family:Poiret One;-inkscape-font-specification:Poiret One"
     id="path3005" /><path
     d="m 125.1582,49.132561 c -0.33749,-0.615871 -0.79593,-1.099828 -1.37533,-1.451874 -0.57942,-0.352015 -1.22842,-0.52803 -1.94702,-0.528046 -0.71862,1.6e-5 -1.33092,0.2237 -1.83692,0.671051 -0.506,0.447383 -0.759,1.059799 -0.759,1.83725 l 0,0.110107 c 0,0.923841 0.51338,1.767102 1.54016,2.529786 0.43998,0.322724 0.9349,0.641744 1.48477,0.957061 0.54986,0.315338 1.09984,0.65271 1.64993,1.012116 0.55009,0.359424 1.04881,0.740772 1.49619,1.144043 0.44736,0.403287 0.81405,0.89821 1.10007,1.484772 0.286,0.586574 0.429,1.231888 0.42901,1.935943 l 0,0.220215 c -1e-5,1.393354 -0.473,2.500694 -1.41897,3.322022 -0.94599,0.821329 -2.11566,1.231994 -3.50901,1.231994 -1.83333,0 -3.256,-0.755309 -4.268,-2.26593 l 0,-1.188355 c 0.38135,0.836103 0.94229,1.514427 1.68283,2.034974 0.74054,0.520549 1.66078,0.780823 2.76074,0.780822 1.09995,10e-7 2.05332,-0.351917 2.86011,-1.055755 0.80677,-0.703835 1.21017,-1.642545 1.21017,-2.816132 l 0,-0.131592 c 0,-0.733596 -0.19068,-1.404647 -0.57202,-2.013153 -0.38135,-0.608493 -0.85804,-1.107109 -1.43005,-1.495849 -0.57203,-0.388725 -1.19541,-0.795809 -1.87015,-1.221253 -0.67475,-0.425426 -1.29802,-0.821432 -1.86981,-1.188019 -0.5718,-0.366566 -1.04837,-0.82848 -1.42972,-1.385742 -0.38135,-0.557239 -0.57202,-1.165962 -0.57202,-1.826172 l 0,-0.153747 c 0,-1.02676 0.32998,-1.811498 0.98996,-2.354218 0.65997,-0.542687 1.4738,-0.814039 2.4415,-0.814056 1.34948,1.7e-5 2.42034,0.498633 3.21258,1.49585 l 0,1.121887 z"
     style="font-variant:normal;font-stretch:normal;line-height:125%;fill:#ffffff;font-family:Poiret One;-inkscape-font-specification:Poiret One"
     id="path3007" /><path
     d="m 141.98861,63.609001 -0.21955,0 c -1.34949,0 -2.48984,-0.469411 -3.42105,-1.408233 -0.93121,-0.938821 -1.39682,-2.119453 -1.39682,-3.541901 l 0,-11.858032 0.72577,0 0,11.835876 c 0,1.246545 0.40328,2.280479 1.20984,3.101807 0.80655,0.82133 1.8039,1.231995 2.99203,1.231994 1.18813,10e-7 2.18189,-0.406971 2.9813,-1.220916 0.79938,-0.813942 1.19908,-1.85157 1.19909,-3.112885 l 0,-11.835876 0.72577,0 0,11.81372 c -1e-5,1.437666 -0.46573,2.629488 -1.39715,3.57547 -0.93145,0.945984 -2.06453,1.418976 -3.39923,1.418976 z"
     style="font-variant:normal;font-stretch:normal;line-height:125%;fill:#ffffff;font-family:Poiret One;-inkscape-font-specification:Poiret One"
     id="path3009" /><path
     d="m 164.81718,46.404716 8.25,16.896119 -0.77008,0 -3.12397,-6.292237 -8.82202,0 -3.07965,6.292237 -0.68213,0 z m -0.0658,1.518006 -4.11426,8.448059 8.27216,0 z"
     style="font-variant:normal;font-stretch:normal;line-height:125%;fill:#ffffff;font-family:Poiret One;-inkscape-font-specification:Poiret One"
     id="path3011" /><path
     d="m 183.57446,46.800835 0,15.862182 5.10388,0 0,0.637818 -5.82965,0 0,-16.5 z"
     style="font-variant:normal;font-stretch:normal;line-height:125%;fill:#ffffff;font-family:Poiret One;-inkscape-font-specification:Poiret One"
     id="path3013" /><path
     d="m 198.34438,46.800835 0.72644,0 0,16.5 -0.72644,0 z"
     style="font-variant:normal;font-stretch:normal;line-height:125%;fill:#ffffff;font-family:Poiret One;-inkscape-font-specification:Poiret One"
     id="path3015" /><path
     d="m 217.16276,62.663017 0,0.637818 -8.29431,0 7.26037,-15.862183 -7.26037,0 0,-0.637817 8.3601,0 -7.28186,15.862182 z"
     style="font-variant:normal;font-stretch:normal;line-height:125%;fill:#ffffff;font-family:Poiret One;-inkscape-font-specification:Poiret One"
     id="path3017" /><path
     d="m 226.859,46.800835 5.9176,0 0,0.637817 -5.19183,0 0,8.97644 4.3338,0 0,0.637818 -4.3338,0 0,5.610107 5.19183,0 0,0.637818 -5.9176,0 z"
     style="font-variant:normal;font-stretch:normal;line-height:125%;fill:#ffffff;font-family:Poiret One;-inkscape-font-specification:Poiret One"
     id="path3019" /><path
     d="m 242.46011,46.800835 0.94598,0 c 1.42244,1.6e-5 2.67267,0.524369 3.7507,1.573059 1.07802,1.04872 1.61703,2.280713 1.61704,3.695984 -1e-5,1.415293 -0.54999,2.643593 -1.64994,3.684906 -1.09996,1.041327 -2.28059,1.561987 -3.5419,1.561981 l -0.15442,0 5.67658,5.98407 -0.94599,0 -4.99444,-5.236145 0,5.236145 -0.70361,0 z m 0.70361,9.878112 0.39612,0 c 1.1879,7e-6 2.23649,-0.454633 3.14578,-1.363922 0.90927,-0.909272 1.36391,-1.987294 1.36392,-3.234069 -1e-5,-1.246753 -0.4693,-2.332161 -1.4079,-3.256226 -0.9386,-0.924037 -2.00924,-1.386062 -3.21191,-1.386078 l -0.28601,0 z"
     style="font-variant:normal;font-stretch:normal;line-height:125%;fill:#ffffff;font-family:Poiret One;-inkscape-font-specification:Poiret One"
     id="path3021" /></g>

</svg>